<svg enable-background="new 0 0 520 520" height="512" viewBox="0 0 520 520" width="512" xmlns="http://www.w3.org/2000/svg"><g id="_x31_24_x2C__Compass_x2C__Direction_x2C__Navigation"><g><path d="m260 10c-138.168 0-250 111.813-250 250 0 138.168 111.814 250 250 250 138.166 0 250-111.813 250-250 0-138.167-111.813-250-250-250zm0 480c-126.822 0-230-103.178-230-230s103.178-230 230-230 230 103.178 230 230-103.178 230-230 230z"/><path d="m260 50c-115.794 0-210 94.206-210 210s94.206 210 210 210 210-94.206 210-210-94.206-210-210-210zm10 399.737v-29.737c0-5.522-4.478-10-10-10s-10 4.478-10 10v29.737c-96.824-5.045-174.692-82.913-179.737-179.737h29.737c5.523 0 10-4.478 10-10 0-5.523-4.477-10-10-10h-29.737c5.045-96.824 82.913-174.692 179.737-179.737v29.737c0 5.523 4.477 10 10 10s10-4.477 10-10v-29.737c96.824 5.045 174.692 82.913 179.737 179.737h-29.737c-5.522 0-10 4.477-10 10 0 5.522 4.478 10 10 10h29.737c-5.045 96.824-82.913 174.692-179.737 179.737z"/><path d="m365.294 131.176-150 80c-1.75.934-3.184 2.367-4.118 4.118l-80 150c-2.004 3.758-1.408 8.372 1.484 11.498 2.908 3.142 7.47 4.067 11.348 2.369l160-70c2.306-1.008 4.146-2.848 5.153-5.153l70-160c1.707-3.901.756-8.456-2.369-11.348-3.125-2.891-7.738-3.487-11.498-1.484zm-72.887 161.231-130.031 56.889 65.015-121.905 121.905-65.015z"/><path d="m260 290c16.542 0 30-13.458 30-30s-13.458-30-30-30-30 13.458-30 30 13.458 30 30 30zm0-40c5.514 0 10 4.486 10 10s-4.486 10-10 10-10-4.486-10-10 4.486-10 10-10z"/></g></g></svg>